<svg width="247" height="75" viewBox="0 0 247 75" fill="none" xmlns="http://www.w3.org/2000/svg">
<mask id="mask0" mask-type="alpha" maskUnits="userSpaceOnUse" x="0" y="0" width="247" height="75">
<rect x="0.468506" width="246.063" height="75" fill="#C4C4C4"/>
</mask>
<g mask="url(#mask0)">
<path d="M60.3218 37.5C39.8991 47.7575 14.3816 20.5543 0.468689 37.5C-9.83717 50.0523 0.468689 77.5 0.468689 77.5H247.086C247.086 77.5 267.037 2.49998 247.086 2.49998C227.135 2.49998 230.385 0.894097 219.93 2.49998C210.012 4.02349 205.439 8.35223 195.546 9.99998C183.201 12.0558 175.379 6.6092 163.402 9.99998C155.64 12.1976 152.871 16.7879 145.114 19C132.938 22.472 124.333 14.8624 112.416 19C105.413 21.4313 103.479 26.4029 96.3446 28.5C87.9076 30.98 81.8848 25.58 73.6225 28.5C67.577 30.6365 65.9948 34.6507 60.3218 37.5Z" fill="#6FCF97" fill-opacity="0.16" stroke="#219653"/>
</g>
</svg>
